<?xml version="1.0" encoding="utf-8"?>
<!-- Generator: Adobe Illustrator 25.4.1, SVG Export Plug-In . SVG Version: 6.00 Build 0)  -->
<svg version="1.1" id="Layer_1" xmlns="http://www.w3.org/2000/svg" xmlns:xlink="http://www.w3.org/1999/xlink" x="0px" y="0px"
	 viewBox="0 0 74.2 66.4" style="enable-background:new 0 0 74.2 66.4;" xml:space="preserve">
<style type="text/css">
	.st0{font-family:'ArialMT';}
	.st1{font-size:12.1401px;}
	.st2{fill:url(#SVGID_1_);}
	.st3{fill:url(#SVGID_00000087383745283784701250000004911713157926613677_);}
	
		.st4{fill:url(#SVGID_00000114058408177433255630000002294360824007792306_);stroke:#231F20;stroke-width:0.104;stroke-miterlimit:10;}
	
		.st5{fill:url(#SVGID_00000047030587174580718420000015007090500297558672_);stroke:#231F20;stroke-width:0.104;stroke-miterlimit:10;}
	.st6{fill:url(#SVGID_00000081619577732258508520000008964693776065213880_);}
	.st7{fill:url(#SVGID_00000098187673306936111120000005800592562210782339_);}
</style>
<text transform="matrix(1.008 0 0 1 -4.882812e-04 63.4058)" class="st0 st1">Katherine Pitts</text>
<g>
	
		<linearGradient id="SVGID_1_" gradientUnits="userSpaceOnUse" x1="21.9425" y1="31.3355" x2="50.35" y2="31.3355" gradientTransform="matrix(1 0 0 -1 0 68)">
		<stop  offset="0.429" style="stop-color:#BB5275"/>
		<stop  offset="1" style="stop-color:#F6BB96"/>
	</linearGradient>
	<path class="st2" d="M50.3,51.7c0,1.3-1.6,2-2.6,1.1L28.4,33.5l-6-6c-0.5-0.5-0.5-1.4,0-1.9l5.1-5.1c0.5-0.5,1.4-0.5,1.9,0L50,41
		c0.2,0.2,0.4,0.6,0.4,1L50.3,51.7z"/>
	<g>
		
			<linearGradient id="SVGID_00000165236587234462216850000006030850183781102728_" gradientUnits="userSpaceOnUse" x1="22.9323" y1="51.6195" x2="51.3385" y2="51.6922" gradientTransform="matrix(1 2.558343e-03 2.558343e-03 -1 -1.0373 69.0881)">
			<stop  offset="0" style="stop-color:#DD5E89"/>
			<stop  offset="1" style="stop-color:#F6BB96"/>
		</linearGradient>
		<path style="fill:url(#SVGID_00000165236587234462216850000006030850183781102728_);" d="M50.4,1.7l0,9.2c0,0.4-0.2,0.9-0.5,1.2
			L35.8,26c-0.1,0.1-0.3,0.2-0.4,0.4c-0.2,0.2-0.4,0.4-0.6,0.6c-1.5,1.7-2.4,3.9-2.4,6.3c0,0,0,0,0,0.1c0,1.5-1.8,2.3-2.8,1.2
			l-7.1-7c-0.6-0.6-0.6-1.7,0-2.4l5.9-5.8l19.2-19C48.6-0.6,50.4,0.2,50.4,1.7z"/>
		
			<linearGradient id="SVGID_00000169552072108886292480000003414120654076304828_" gradientUnits="userSpaceOnUse" x1="35.7193" y1="42.1995" x2="35.7193" y2="42.1995" gradientTransform="matrix(1 2.558343e-03 2.558343e-03 -1 -1.0373 69.0881)">
			<stop  offset="0.362" style="stop-color:#F279A0"/>
			<stop  offset="0.7201" style="stop-color:#EE3C8C"/>
		</linearGradient>
		
			<path style="fill:url(#SVGID_00000169552072108886292480000003414120654076304828_);stroke:#231F20;stroke-width:0.104;stroke-miterlimit:10;" d="
			M34.8,27"/>
		
			<linearGradient id="SVGID_00000036217047417542809370000004955858814541701555_" gradientUnits="userSpaceOnUse" x1="36.2978" y1="42.811" x2="36.2978" y2="42.811" gradientTransform="matrix(1 2.558343e-03 2.558343e-03 -1 -1.0373 69.0881)">
			<stop  offset="0.362" style="stop-color:#F279A0"/>
			<stop  offset="0.7201" style="stop-color:#EE3C8C"/>
		</linearGradient>
		
			<path style="fill:url(#SVGID_00000036217047417542809370000004955858814541701555_);stroke:#231F20;stroke-width:0.104;stroke-miterlimit:10;" d="
			M35.4,26.4"/>
	</g>
	<g>
		
			<linearGradient id="SVGID_00000038391117856455736510000007633111748674283139_" gradientUnits="userSpaceOnUse" x1="18.115" y1="67.8921" x2="18.115" y2="13.3294" gradientTransform="matrix(1 0 0 -1 0 68)">
			<stop  offset="0" style="stop-color:#DD5E89"/>
			<stop  offset="1" style="stop-color:#F6BB96"/>
		</linearGradient>
		<path style="fill:url(#SVGID_00000038391117856455736510000007633111748674283139_);" d="M13.1,1.6v24.8c0,0.8,0.7,1.5,1.5,1.5h7
			c0.8,0,1.5-0.7,1.5-1.5V8.6c0-0.4-0.2-0.8-0.4-1.1l-7-7C14.7-0.4,13.1,0.3,13.1,1.6z"/>
		<g>
			
				<linearGradient id="SVGID_00000176726028170698804210000017693355559683540401_" gradientUnits="userSpaceOnUse" x1="-517.8949" y1="783.6725" x2="-517.8949" y2="728.3043" gradientTransform="matrix(-1 0 0 1 -499.7849 -730.4008)">
				<stop  offset="0" style="stop-color:#DD5E89"/>
				<stop  offset="1" style="stop-color:#F6BB96"/>
			</linearGradient>
			<path style="fill:url(#SVGID_00000176726028170698804210000017693355559683540401_);" d="M23.1,52V26.2c0-0.7-0.5-1.2-1.2-1.2
				h-7.3c-0.8,0-1.5,0.7-1.5,1.5v18c0,0.3,0.1,0.6,0.4,0.9l7.6,7.6C21.8,53.7,23.1,53.1,23.1,52z"/>
		</g>
	</g>
</g>
</svg>
