<?xml version="1.0" encoding="utf-8"?>
<!-- Generator: Adobe Illustrator 25.4.1, SVG Export Plug-In . SVG Version: 6.00 Build 0)  -->
<svg version="1.1" id="Layer_1" xmlns="http://www.w3.org/2000/svg" xmlns:xlink="http://www.w3.org/1999/xlink" x="0px" y="0px"
	 viewBox="0 0 74.21 66.44" style="enable-background:new 0 0 74.21 66.44;" xml:space="preserve">
<style type="text/css">
	.st0{fill:#FDFEFE;}
	.st1{font-family:'MyriadPro-Regular';}
	.st2{font-size:12.1401px;}
	.st3{fill:url(#SVGID_1_);}
	.st4{fill:url(#SVGID_00000084505253409991550190000007358849506508343214_);}
	
		.st5{fill:url(#SVGID_00000062894671943583379160000001585649098172036282_);stroke:#231F20;stroke-width:0.104;stroke-miterlimit:10;}
	
		.st6{fill:url(#SVGID_00000067943083593974896110000012712191454400069518_);stroke:#231F20;stroke-width:0.104;stroke-miterlimit:10;}
	.st7{fill:url(#SVGID_00000083767779218473552450000002800555693623931290_);}
	.st8{fill:url(#SVGID_00000035503792664309424400000016034615373689760942_);}
</style>
<g>
	<text transform="matrix(1.008 0 0 1 -4.119873e-04 63.4057)" class="st0 st1 st2">Katherine Pitts</text>
	<g>
		<linearGradient id="SVGID_1_" gradientUnits="userSpaceOnUse" x1="21.9423" y1="36.6682" x2="50.3454" y2="36.6682">
			<stop  offset="0.429" style="stop-color:#BB5275"/>
			<stop  offset="1" style="stop-color:#F6BB96"/>
		</linearGradient>
		<path class="st3" d="M50.35,51.68c0,1.33-1.61,2-2.56,1.06L28.38,33.5l-6.04-6c-0.53-0.52-0.53-1.37,0-1.9l5.1-5.06
			c0.52-0.52,1.36-0.52,1.88,0L49.95,41c0.25,0.25,0.4,0.59,0.4,0.95L50.35,51.68z"/>
		<g>
			
				<linearGradient id="SVGID_00000131342626720612708590000010816026160458232971_" gradientUnits="userSpaceOnUse" x1="22.0095" y1="17.1238" x2="50.4218" y2="17.0511" gradientTransform="matrix(1 2.558343e-03 -2.558343e-03 1 0.0628 0.4025)">
				<stop  offset="0" style="stop-color:#DD5E89"/>
				<stop  offset="1" style="stop-color:#F6BB96"/>
			</linearGradient>
			<path style="fill:url(#SVGID_00000131342626720612708590000010816026160458232971_);" d="M50.41,1.66l-0.02,9.23
				c0,0.44-0.18,0.86-0.49,1.17L35.76,26.02c-0.13,0.11-0.26,0.23-0.39,0.35c-0.21,0.19-0.4,0.4-0.58,0.61
				c-1.5,1.7-2.4,3.91-2.41,6.34c0,0.02,0,0.05,0,0.07c0.01,1.5-1.75,2.3-2.82,1.24l-7.07-7.05c-0.65-0.65-0.65-1.71,0.01-2.35
				l5.91-5.8L47.6,0.48C48.64-0.55,50.42,0.19,50.41,1.66z"/>
			
				<linearGradient id="SVGID_00000063593992998438407920000002301568314924549302_" gradientUnits="userSpaceOnUse" x1="34.7931" y1="26.4857" x2="34.7931" y2="26.4857" gradientTransform="matrix(1 2.558343e-03 -2.558343e-03 1 0.0628 0.4025)">
				<stop  offset="0.362" style="stop-color:#F279A0"/>
				<stop  offset="0.7201" style="stop-color:#EE3C8C"/>
			</linearGradient>
			
				<path style="fill:url(#SVGID_00000063593992998438407920000002301568314924549302_);stroke:#231F20;stroke-width:0.104;stroke-miterlimit:10;" d="
				M34.79,26.98"/>
			
				<linearGradient id="SVGID_00000152969693598723645910000013627420843365326237_" gradientUnits="userSpaceOnUse" x1="35.3738" y1="25.8765" x2="35.3738" y2="25.8765" gradientTransform="matrix(1 2.558343e-03 -2.558343e-03 1 0.0628 0.4025)">
				<stop  offset="0.362" style="stop-color:#F279A0"/>
				<stop  offset="0.7201" style="stop-color:#EE3C8C"/>
			</linearGradient>
			
				<path style="fill:url(#SVGID_00000152969693598723645910000013627420843365326237_);stroke:#231F20;stroke-width:0.104;stroke-miterlimit:10;" d="
				M35.37,26.37"/>
		</g>
		<g>
			
				<linearGradient id="SVGID_00000096047271863744840390000010414786591283615375_" gradientUnits="userSpaceOnUse" x1="18.1074" y1="0.1057" x2="18.1074" y2="54.6684">
				<stop  offset="0" style="stop-color:#DD5E89"/>
				<stop  offset="1" style="stop-color:#F6BB96"/>
			</linearGradient>
			<path style="fill:url(#SVGID_00000096047271863744840390000010414786591283615375_);" d="M13.11,1.62v24.84
				c0,0.83,0.67,1.51,1.51,1.51h6.99c0.83,0,1.51-0.67,1.51-1.51V8.64c0-0.4-0.16-0.78-0.44-1.06l-6.99-7.02
				C14.73-0.4,13.11,0.27,13.11,1.62z"/>
			<g>
				
					<linearGradient id="SVGID_00000034061396895228725920000004650422046308346035_" gradientUnits="userSpaceOnUse" x1="18.1077" y1="8.3242" x2="18.1077" y2="63.6924" gradientTransform="matrix(-1 0 0 -1 36.2151 61.5992)">
					<stop  offset="0" style="stop-color:#DD5E89"/>
					<stop  offset="1" style="stop-color:#F6BB96"/>
				</linearGradient>
				<path style="fill:url(#SVGID_00000034061396895228725920000004650422046308346035_);" d="M23.11,52.05V26.22
					c0-0.67-0.55-1.22-1.22-1.22h-7.28c-0.83,0-1.5,0.67-1.5,1.5v17.95c0,0.32,0.13,0.63,0.35,0.86l7.56,7.6
					C21.79,53.68,23.11,53.14,23.11,52.05z"/>
			</g>
		</g>
	</g>
</g>
</svg>
