<?xml version="1.0" encoding="utf-8"?>
<!-- Generator: Adobe Illustrator 25.4.1, SVG Export Plug-In . SVG Version: 6.00 Build 0)  -->
<svg version="1.1" id="Layer_1" xmlns="http://www.w3.org/2000/svg" xmlns:xlink="http://www.w3.org/1999/xlink" x="0px" y="0px"
	 viewBox="0 0 126 71.3" style="enable-background:new 0 0 126 71.3;" xml:space="preserve">
<style type="text/css">
	.st0{fill:#FDFEFE;}
	.st1{font-family:'ArialMT';}
	.st2{font-size:19.3766px;}
	.st3{fill:url(#SVGID_1_);}
	.st4{fill:url(#SVGID_00000126304971561202789280000007138018211513690285_);}
	
		.st5{fill:url(#SVGID_00000014623983551823658720000004209987280839077053_);stroke:#231F20;stroke-width:0.104;stroke-miterlimit:10;}
	
		.st6{fill:url(#SVGID_00000005948295321535548240000008336333661123930267_);stroke:#231F20;stroke-width:0.104;stroke-miterlimit:10;}
	.st7{fill:url(#SVGID_00000078023327805686803960000015367544998714902676_);}
	.st8{fill:url(#SVGID_00000142153026109128188520000016673237892627563163_);}
</style>
<g>
	<text transform="matrix(1.008 0 0 1 -0.684 71.3165)" class="st0 st1 st2">Katherine Pitts</text>
	<g>
		
			<linearGradient id="SVGID_1_" gradientUnits="userSpaceOnUse" x1="53.0095" y1="31.3347" x2="81.417" y2="31.3347" gradientTransform="matrix(1 0 0 -1 0 67.9983)">
			<stop  offset="0.429" style="stop-color:#BB5275"/>
			<stop  offset="1" style="stop-color:#F6BB96"/>
		</linearGradient>
		<path class="st3" d="M81.4,51.7c0,1.3-1.6,2-2.6,1.1L59.4,33.5l-6-6c-0.5-0.5-0.5-1.4,0-1.9l5.1-5.1c0.5-0.5,1.4-0.5,1.9,0L81,41
			c0.2,0.2,0.4,0.6,0.4,1V51.7z"/>
		<g>
			
				<linearGradient id="SVGID_00000080197650994191678390000013953466410055348384_" gradientUnits="userSpaceOnUse" x1="53.9993" y1="51.6238" x2="82.4055" y2="51.6965" gradientTransform="matrix(1 2.558343e-03 2.558343e-03 -1 -1.0373 69.0121)">
				<stop  offset="0" style="stop-color:#DD5E89"/>
				<stop  offset="1" style="stop-color:#F6BB96"/>
			</linearGradient>
			<path style="fill:url(#SVGID_00000080197650994191678390000013953466410055348384_);" d="M81.5,1.7l0,9.2c0,0.4-0.2,0.9-0.5,1.2
				L66.8,26c-0.1,0.1-0.3,0.2-0.4,0.4c-0.2,0.2-0.4,0.4-0.6,0.6c-1.5,1.7-2.4,3.9-2.4,6.3c0,0,0,0,0,0.1c0,1.5-1.8,2.3-2.8,1.2
				l-7.1-7c-0.6-0.6-0.6-1.7,0-2.4l5.9-5.8l19.2-19C79.7-0.6,81.5,0.2,81.5,1.7z"/>
			
				<linearGradient id="SVGID_00000108308697119924528800000000771756858285258634_" gradientUnits="userSpaceOnUse" x1="66.7863" y1="42.2038" x2="66.7863" y2="42.2038" gradientTransform="matrix(1 2.558343e-03 2.558343e-03 -1 -1.0373 69.0121)">
				<stop  offset="0.362" style="stop-color:#F279A0"/>
				<stop  offset="0.7201" style="stop-color:#EE3C8C"/>
			</linearGradient>
			
				<path style="fill:url(#SVGID_00000108308697119924528800000000771756858285258634_);stroke:#231F20;stroke-width:0.104;stroke-miterlimit:10;" d="
				M65.9,27"/>
			
				<linearGradient id="SVGID_00000016771142549362429420000008141152780044114331_" gradientUnits="userSpaceOnUse" x1="67.3647" y1="42.8153" x2="67.3647" y2="42.8153" gradientTransform="matrix(1 2.558343e-03 2.558343e-03 -1 -1.0373 69.0121)">
				<stop  offset="0.362" style="stop-color:#F279A0"/>
				<stop  offset="0.7201" style="stop-color:#EE3C8C"/>
			</linearGradient>
			
				<path style="fill:url(#SVGID_00000016771142549362429420000008141152780044114331_);stroke:#231F20;stroke-width:0.104;stroke-miterlimit:10;" d="
				M66.4,26.4"/>
		</g>
		<g>
			
				<linearGradient id="SVGID_00000057864741841493729960000013049200104373095854_" gradientUnits="userSpaceOnUse" x1="49.182" y1="67.8913" x2="49.182" y2="13.3285" gradientTransform="matrix(1 0 0 -1 0 67.9983)">
				<stop  offset="0" style="stop-color:#DD5E89"/>
				<stop  offset="1" style="stop-color:#F6BB96"/>
			</linearGradient>
			<path style="fill:url(#SVGID_00000057864741841493729960000013049200104373095854_);" d="M44.2,1.6v24.8c0,0.8,0.7,1.5,1.5,1.5h7
				c0.8,0,1.5-0.7,1.5-1.5V8.6c0-0.4-0.2-0.8-0.4-1.1l-7-7C45.8-0.4,44.2,0.3,44.2,1.6z"/>
			<g>
				
					<linearGradient id="SVGID_00000117648489116660436070000000897247763911942563_" gradientUnits="userSpaceOnUse" x1="-490.8342" y1="783.6717" x2="-490.8342" y2="728.3035" gradientTransform="matrix(-1 0 0 1 -441.6572 -730.4008)">
					<stop  offset="0" style="stop-color:#DD5E89"/>
					<stop  offset="1" style="stop-color:#F6BB96"/>
				</linearGradient>
				<path style="fill:url(#SVGID_00000117648489116660436070000000897247763911942563_);" d="M54.2,52V26.2c0-0.7-0.5-1.2-1.2-1.2
					h-7.3c-0.8,0-1.5,0.7-1.5,1.5v18c0,0.3,0.1,0.6,0.4,0.9l7.6,7.6C52.9,53.7,54.2,53.1,54.2,52z"/>
			</g>
		</g>
	</g>
</g>
</svg>
